<svg xmlns="http://www.w3.org/2000/svg" width="27.818" height="27.818" viewBox="0 0 27.818 27.818">
  <path id="Icon_material-favorite-border" data-name="Icon material-favorite-border" d="M23.168,4.5a8.068,8.068,0,0,0-6.259,3.168A8.068,8.068,0,0,0,10.65,4.5C6.366,4.5,3,8.169,3,12.838c0,5.73,4.729,10.4,11.892,17.494l2.017,1.986,2.017-2c7.163-7.08,11.892-11.749,11.892-17.479C30.818,8.169,27.452,4.5,23.168,4.5Zm-6.12,23.573-.139.152-.139-.152C10.149,21.539,5.782,17.219,5.782,12.838A4.981,4.981,0,0,1,10.65,7.532a5.451,5.451,0,0,1,4.965,3.578h2.6a5.419,5.419,0,0,1,4.952-3.578,4.981,4.981,0,0,1,4.868,5.306C28.036,17.219,23.669,21.539,17.048,28.073Z" transform="translate(-3 -4.5)"/>
</svg>
