<svg xmlns="http://www.w3.org/2000/svg" width="26.621" height="26.621" viewBox="0 0 26.621 26.621">
  <g id="c9246bad85cc7e1186c99ffb621f9630" transform="translate(-1 -1)">
    <path id="Path_4611" data-name="Path 4611" d="M24.959,12.536h-.887V10.761a9.761,9.761,0,1,0-19.522,0v1.775H3.662A2.662,2.662,0,0,0,1,15.2v3.549A2.662,2.662,0,0,0,3.662,21.41h.887a2.662,2.662,0,0,0,5.324,0V12.536a2.662,2.662,0,0,0-3.549-2.511,7.986,7.986,0,0,1,15.9,0,2.662,2.662,0,0,0-3.478,2.511V21.41a2.662,2.662,0,0,0,3.549,2.5v1.934H19.546a4.3,4.3,0,0,1-.8,1.775h4.437a.887.887,0,0,0,.887-.887V21.41h.887a2.662,2.662,0,0,0,2.662-2.662V15.2a2.662,2.662,0,0,0-2.662-2.662Z"/>
    <path id="Path_4612" data-name="Path 4612" d="M16.437,25H14.662a2.662,2.662,0,0,0,0,5.324h1.775a2.662,2.662,0,1,0,0-5.324Z" transform="translate(-1.239 -2.703)" fill="#fff"/>
  </g>
</svg>
