<svg xmlns="http://www.w3.org/2000/svg" width="30.113" height="29.474" viewBox="0 0 30.113 29.474">
  <path id="_3d25c05c03f759d0477e70a930f25721" data-name="3d25c05c03f759d0477e70a930f25721" d="M16.519,2V5.025h1.075V2Zm-7.73.033-.873.605L9.7,5.125l.874-.638Zm16.771,0L23.778,4.486l.874.639,1.781-2.486ZM12.351,7.041a6.14,6.14,0,0,1,4.335,1.815.558.558,0,0,0,.74,0,6.119,6.119,0,1,1,8.67,8.637l-4.705,4.672L17.056,26.5l-4.335-4.335C11.159,20.58,9.5,19.03,7.983,17.426a6.053,6.053,0,0,1,.032-8.57,6.142,6.142,0,0,1,4.336-1.815ZM2.4,8.587,2,9.6,4.823,10.7l.4-1.007Zm29.306,0L28.886,9.7l.4,1.009L32.113,9.6ZM6.3,18.6,3.479,19.711l.4,1.009,2.823-1.142Zm21.509,0-.4.974,2.823,1.142.4-1.008ZM9.7,24.181,7.915,26.634l.874.639L10.57,24.82Zm14.955,0-.873.639,1.781,2.453.874-.639ZM16.519,28.45v3.024h1.075V28.45Z" transform="translate(-2 -2)"/>
</svg>
