<svg xmlns="http://www.w3.org/2000/svg" width="19.268" height="19.268" viewBox="0 0 19.268 19.268"><path d="M12.624,3a9.634,9.634,0,1,0,9.644,9.634A9.629,9.629,0,0,0,12.624,3ZM19.3,8.78H16.459a15.076,15.076,0,0,0-1.329-3.43A7.736,7.736,0,0,1,19.3,8.78ZM12.634,4.965a13.571,13.571,0,0,1,1.84,3.815h-3.68A13.571,13.571,0,0,1,12.634,4.965Zm-7.457,9.6a7.536,7.536,0,0,1,0-3.854H8.434A15.911,15.911,0,0,0,8.3,12.634a15.911,15.911,0,0,0,.135,1.927Zm.79,1.927H8.809a15.076,15.076,0,0,0,1.329,3.43A7.694,7.694,0,0,1,5.967,16.487ZM8.809,8.78H5.967a7.694,7.694,0,0,1,4.171-3.43A15.076,15.076,0,0,0,8.809,8.78ZM12.634,20.3a13.571,13.571,0,0,1-1.84-3.815h3.68A13.571,13.571,0,0,1,12.634,20.3Zm2.254-5.742H10.38a14.174,14.174,0,0,1-.154-1.927,14.051,14.051,0,0,1,.154-1.927h4.509a14.051,14.051,0,0,1,.154,1.927A14.174,14.174,0,0,1,14.888,14.561Zm.241,5.356a15.076,15.076,0,0,0,1.329-3.43H19.3a7.736,7.736,0,0,1-4.171,3.43Zm1.705-5.356a15.91,15.91,0,0,0,.135-1.927,15.91,15.91,0,0,0-.135-1.927h3.256a7.536,7.536,0,0,1,0,3.854Z" transform="translate(-3 -3)" fill="#f9aa10"/></svg>