<svg xmlns="http://www.w3.org/2000/svg" width="26.621" height="23.072" viewBox="0 0 26.621 23.072">
  <path id="_2e98b85bc99f58bac3f298435e2495ed" data-name="2e98b85bc99f58bac3f298435e2495ed" d="M19.635,3A4.442,4.442,0,0,0,15.2,7.437v14.3c.017-.017.032-.036.05-.054a6.133,6.133,0,0,1,4.387-1.818h7.986V3ZM13.423,21.733V7.437A4.445,4.445,0,0,0,8.986,3H1V19.86H8.986a6.188,6.188,0,0,1,4.438,1.874Zm-4.437-.1H1v4.437H13.423A4.442,4.442,0,0,0,8.986,21.635Zm7.516,1.3a4.379,4.379,0,0,0-1.3,3.138H27.621V21.635H19.635a4.375,4.375,0,0,0-3.132,1.3Z" transform="translate(-1 -3)" />
</svg>
