<svg xmlns="http://www.w3.org/2000/svg" width="80" height="80" viewBox="0 0 80 80">
  <path id="Icon_ionic-ios-star" data-name="Icon ionic-ios-star" d="M74.4,29.337H49.778L42.295,5.286a2.65,2.65,0,0,0-5.089,0l-7.483,24.05H4.929A2.8,2.8,0,0,0,2.25,32.221a2.276,2.276,0,0,0,.05.487,2.826,2.826,0,0,0,1.122,2.037l20.24,15.361L15.894,74.427a3.026,3.026,0,0,0,.921,3.245,2.5,2.5,0,0,0,1.507.7A3.138,3.138,0,0,0,20,77.726L39.75,62.564,59.5,77.726a3,3,0,0,0,1.674.649,2.326,2.326,0,0,0,1.49-.7,2.988,2.988,0,0,0,.921-3.245L55.821,50.106,75.894,34.6l.485-.451a3.12,3.12,0,0,0,.871-1.929A2.936,2.936,0,0,0,74.4,29.337Z" transform="translate(0.25 -0.875)"  stroke="#f9aa10" stroke-width="5"/>
</svg>
