<svg xmlns="http://www.w3.org/2000/svg" width="21.224" height="12" viewBox="0 0 21.224 12">
  <path id="Path_4605" data-name="Path 4605" d="M19.932,27A12.463,12.463,0,0,0,9.32,33a12.385,12.385,0,0,0,21.224,0A12.463,12.463,0,0,0,19.932,27Zm0,10.435A4.435,4.435,0,1,1,24.367,33,4.441,4.441,0,0,1,19.932,37.435Zm0-7.826A3.391,3.391,0,1,0,23.323,33,3.395,3.395,0,0,0,19.932,29.609Zm0,2.087a1.291,1.291,0,0,0-.822.3l-.183.183a1.291,1.291,0,0,0-.3.822.522.522,0,1,1-1.043,0,2.351,2.351,0,0,1,2.348-2.348.522.522,0,1,1,0,1.043Z" transform="translate(-9.32 -27)" fill="#f9aa10"/>
</svg>
