<svg xmlns="http://www.w3.org/2000/svg" width="40.895" height="35.783" viewBox="0 0 40.895 35.783"><defs><style>.a{fill:#f9aa10;}</style></defs><path class="a" d="M24.281,32.921H19.17A1.278,1.278,0,0,0,17.892,34.2v2.556a1.278,1.278,0,0,0,1.278,1.278h5.112a1.278,1.278,0,0,0,1.278-1.278V34.2A1.278,1.278,0,0,0,24.281,32.921ZM14.058,27.809H10.224V3.528A1.278,1.278,0,0,0,8.946,2.25H6.39A1.278,1.278,0,0,0,5.112,3.528V27.809H1.278a1.278,1.278,0,0,0-.9,2.181l6.39,7.668a1.278,1.278,0,0,0,1.807,0l6.39-7.668A1.28,1.28,0,0,0,14.058,27.809ZM34.505,12.474H19.17a1.278,1.278,0,0,0-1.278,1.278v2.556a1.278,1.278,0,0,0,1.278,1.278H34.505a1.278,1.278,0,0,0,1.278-1.278V13.752A1.278,1.278,0,0,0,34.505,12.474ZM29.393,22.7H19.17a1.278,1.278,0,0,0-1.278,1.278v2.556a1.278,1.278,0,0,0,1.278,1.278H29.393a1.278,1.278,0,0,0,1.278-1.278V23.975A1.278,1.278,0,0,0,29.393,22.7ZM39.617,2.25H19.17a1.278,1.278,0,0,0-1.278,1.278V6.084A1.278,1.278,0,0,0,19.17,7.362H39.617a1.278,1.278,0,0,0,1.278-1.278V3.528A1.278,1.278,0,0,0,39.617,2.25Z" transform="translate(0 -2.25)"/></svg>